<svg id="Capa_1" data-name="Capa 1" xmlns="http://www.w3.org/2000/svg" xmlns:xlink="http://www.w3.org/1999/xlink" viewBox="0 0 108 124"><defs><style>.cls-1{fill:url(#linear-gradient);}.cls-2{fill:url(#linear-gradient-2);}.cls-3{fill:url(#linear-gradient-3);}.cls-4{fill:url(#linear-gradient-4);}.cls-5{fill:url(#linear-gradient-5);}.cls-6{fill:url(#linear-gradient-6);}.cls-7{fill:url(#linear-gradient-7);}.cls-8{fill:url(#linear-gradient-8);}.cls-9{fill:url(#linear-gradient-9);}.cls-10{fill:url(#linear-gradient-10);}.cls-11{fill:url(#linear-gradient-11);}.cls-12{fill:url(#linear-gradient-12);}</style><linearGradient id="linear-gradient" x1="76.82" y1="11.69" x2="5.71" y2="103.84" gradientUnits="userSpaceOnUse"><stop offset="0" stop-color="#0fd"/><stop offset="1" stop-color="#00d4ff"/></linearGradient><linearGradient id="linear-gradient-2" x1="85.66" y1="18.52" x2="14.55" y2="110.66" xlink:href="#linear-gradient"/><linearGradient id="linear-gradient-3" x1="101.51" y1="30.75" x2="30.4" y2="122.89" xlink:href="#linear-gradient"/><linearGradient id="linear-gradient-4" x1="79.27" y1="13.59" x2="8.16" y2="105.73" xlink:href="#linear-gradient"/><linearGradient id="linear-gradient-5" x1="55.97" y1="-4.39" x2="-15.14" y2="87.75" xlink:href="#linear-gradient"/><linearGradient id="linear-gradient-6" x1="53.69" y1="-6.15" x2="-17.42" y2="85.99" xlink:href="#linear-gradient"/><linearGradient id="linear-gradient-7" x1="77.07" y1="11.89" x2="5.96" y2="104.04" xlink:href="#linear-gradient"/><linearGradient id="linear-gradient-8" x1="97.09" y1="27.34" x2="25.98" y2="119.48" xlink:href="#linear-gradient"/><linearGradient id="linear-gradient-9" x1="98.02" y1="28.06" x2="26.91" y2="120.2" xlink:href="#linear-gradient"/><linearGradient id="linear-gradient-10" x1="88.69" y1="20.86" x2="17.58" y2="113" xlink:href="#linear-gradient"/><linearGradient id="linear-gradient-11" x1="62.13" y1="0.36" x2="-8.98" y2="92.5" xlink:href="#linear-gradient"/><linearGradient id="linear-gradient-12" x1="115.94" y1="41.89" x2="44.83" y2="134.03" xlink:href="#linear-gradient"/></defs><polygon class="cls-1" points="37.46 83.93 32.56 83.93 32.56 64.98 27.98 64.98 27.98 74.46 23.08 74.46 23.08 60.08 37.46 60.08 37.46 83.93"/><polygon class="cls-2" points="46.94 93.41 23.08 93.41 23.08 79.03 27.98 79.03 27.98 88.51 42.03 88.51 42.03 50.34 46.94 50.34 46.94 93.41"/><polygon class="cls-3" points="37.46 112.36 32.56 112.36 32.56 97.98 51.51 97.98 51.51 69.56 65.89 69.56 65.89 102.89 60.99 102.89 60.99 74.46 56.41 74.46 56.41 102.89 37.46 102.89 37.46 112.36"/><polygon class="cls-4" points="75.36 55.51 60.99 55.51 60.99 36.55 51.51 36.55 51.51 12.7 75.36 12.7 75.36 17.6 56.41 17.6 56.41 31.65 65.89 31.65 65.89 50.6 75.36 50.6 75.36 55.51"/><polygon class="cls-5" points="37.46 36.55 23.08 36.55 23.08 12.7 42.03 12.7 42.03 3.38 65.89 3.38 65.89 8.28 46.94 8.28 46.94 17.6 27.98 17.6 27.98 31.65 37.46 31.65 37.46 36.55"/><polygon class="cls-6" points="27.98 46.03 13.61 46.03 13.61 26.91 18.51 26.91 18.51 41.13 27.98 41.13 27.98 46.03"/><polygon class="cls-7" points="27.98 112.36 23.08 112.36 23.08 102.89 13.61 102.89 13.61 83.93 4.13 83.93 4.13 69.56 18.51 69.56 18.51 74.46 9.03 74.46 9.03 79.03 18.51 79.03 18.51 97.98 27.98 97.98 27.98 112.36"/><polygon class="cls-8" points="103.79 55.51 89.42 55.51 89.42 36.55 79.94 36.55 79.94 12.7 84.84 12.7 84.84 31.65 94.32 31.65 94.32 50.6 103.79 50.6 103.79 55.51"/><polygon class="cls-9" points="103.79 74.46 89.42 74.46 89.42 64.98 79.94 64.98 79.94 46.03 70.46 46.03 70.46 27.08 60.99 27.08 60.99 22.17 75.36 22.17 75.36 41.13 84.84 41.13 84.84 60.08 94.32 60.08 94.32 69.56 98.89 69.56 98.89 60.08 103.79 60.08 103.79 74.46"/><polygon class="cls-10" points="94.32 93.41 70.46 93.41 70.46 64.8 51.51 64.8 51.51 46.03 37.46 46.03 37.46 55.51 18.51 55.51 18.51 64.8 4.13 64.8 4.13 50.6 9.03 50.6 9.03 59.9 13.61 59.9 13.61 50.6 32.56 50.6 32.56 41.13 56.41 41.13 56.41 59.9 75.36 59.9 75.36 88.51 89.42 88.51 89.42 83.93 79.94 83.93 79.94 69.56 84.84 69.56 84.84 79.03 94.32 79.03 94.32 93.41"/><polygon class="cls-11" points="46.94 36.55 42.03 36.55 42.03 27.08 32.56 27.08 32.56 22.17 46.94 22.17 46.94 36.55"/><polygon class="cls-12" points="65.89 121.84 42.03 121.84 42.03 107.46 79.94 107.46 79.94 102.89 70.46 102.89 70.46 97.98 84.84 97.98 84.84 112.36 46.94 112.36 46.94 116.94 65.89 116.94 65.89 121.84"/></svg>