<svg id="Capa_1" data-name="Capa 1" xmlns="http://www.w3.org/2000/svg" xmlns:xlink="http://www.w3.org/1999/xlink" viewBox="0 0 1014 333"><defs><style>.cls-1{fill:url(#linear-gradient);}.cls-2{fill:url(#linear-gradient-2);}.cls-3{fill:url(#linear-gradient-3);}.cls-4{fill:url(#linear-gradient-4);}.cls-5{fill:url(#linear-gradient-5);}.cls-6{fill:url(#linear-gradient-6);}.cls-7{fill:url(#linear-gradient-7);}.cls-8{fill:url(#linear-gradient-8);}.cls-9{fill:url(#linear-gradient-9);}.cls-10{fill:url(#linear-gradient-10);}.cls-11{fill:url(#linear-gradient-11);}.cls-12{fill:url(#linear-gradient-12);}.cls-13{fill:url(#linear-gradient-13);}.cls-14{fill:url(#linear-gradient-14);}.cls-15{fill:url(#linear-gradient-15);}.cls-16{fill:url(#linear-gradient-16);}.cls-17{fill:url(#linear-gradient-17);}.cls-18{fill:url(#linear-gradient-18);}.cls-19{fill:url(#linear-gradient-19);}.cls-20{fill:url(#linear-gradient-20);}.cls-21{fill:url(#linear-gradient-21);}.cls-22{fill:#f5f5f5;}.cls-23{fill:url(#linear-gradient-22);}.cls-24{fill:url(#linear-gradient-23);}.cls-25{fill:url(#linear-gradient-24);}.cls-26{fill:url(#linear-gradient-25);}.cls-27{fill:url(#linear-gradient-26);}.cls-28{fill:url(#linear-gradient-27);}.cls-29{fill:url(#linear-gradient-28);}.cls-30{fill:url(#linear-gradient-29);}.cls-31{fill:url(#linear-gradient-30);}.cls-32{fill:url(#linear-gradient-31);}.cls-33{fill:url(#linear-gradient-32);}.cls-34{fill:url(#linear-gradient-33);}.cls-35{fill:url(#linear-gradient-34);}.cls-36{fill:url(#linear-gradient-35);}</style><linearGradient id="linear-gradient" x1="295.06" y1="273.47" x2="327.11" y2="273.47" gradientUnits="userSpaceOnUse"><stop offset="0" stop-color="#0fd"/><stop offset="1" stop-color="#00d4ff"/></linearGradient><linearGradient id="linear-gradient-2" x1="331.63" y1="273.33" x2="340.8" y2="273.33" xlink:href="#linear-gradient"/><linearGradient id="linear-gradient-3" x1="347.11" y1="279.73" x2="371.83" y2="279.73" xlink:href="#linear-gradient"/><linearGradient id="linear-gradient-4" x1="373.04" y1="280.25" x2="401.07" y2="280.25" xlink:href="#linear-gradient"/><linearGradient id="linear-gradient-5" x1="403.36" y1="275.85" x2="426.93" y2="275.85" xlink:href="#linear-gradient"/><linearGradient id="linear-gradient-6" x1="442.48" y1="280.19" x2="471.27" y2="280.19" xlink:href="#linear-gradient"/><linearGradient id="linear-gradient-7" x1="473.88" y1="280.19" x2="506.57" y2="280.19" xlink:href="#linear-gradient"/><linearGradient id="linear-gradient-8" x1="511.92" y1="279.86" x2="561.1" y2="279.86" xlink:href="#linear-gradient"/><linearGradient id="linear-gradient-9" x1="567.6" y1="280.09" x2="600.29" y2="280.09" xlink:href="#linear-gradient"/><linearGradient id="linear-gradient-10" x1="606.33" y1="295.36" x2="615.38" y2="295.36" xlink:href="#linear-gradient"/><linearGradient id="linear-gradient-11" x1="631.56" y1="273.05" x2="657.55" y2="273.05" xlink:href="#linear-gradient"/><linearGradient id="linear-gradient-12" x1="659.21" y1="273.33" x2="668.38" y2="273.33" xlink:href="#linear-gradient"/><linearGradient id="linear-gradient-13" x1="674.69" y1="279.73" x2="699.4" y2="279.73" xlink:href="#linear-gradient"/><linearGradient id="linear-gradient-14" x1="700.61" y1="280.25" x2="728.64" y2="280.25" xlink:href="#linear-gradient"/><linearGradient id="linear-gradient-15" x1="730.94" y1="275.85" x2="754.51" y2="275.85" xlink:href="#linear-gradient"/><linearGradient id="linear-gradient-16" x1="770.18" y1="280.25" x2="798.21" y2="280.25" xlink:href="#linear-gradient"/><linearGradient id="linear-gradient-17" x1="801.78" y1="280.09" x2="834.47" y2="280.09" xlink:href="#linear-gradient"/><linearGradient id="linear-gradient-18" x1="840.32" y1="279.73" x2="865.04" y2="279.73" xlink:href="#linear-gradient"/><linearGradient id="linear-gradient-19" x1="867.27" y1="280.19" x2="902.5" y2="280.19" xlink:href="#linear-gradient"/><linearGradient id="linear-gradient-20" x1="904.85" y1="280.09" x2="937.55" y2="280.09" xlink:href="#linear-gradient"/><linearGradient id="linear-gradient-21" x1="941.93" y1="273.83" x2="976.01" y2="273.83" xlink:href="#linear-gradient"/><linearGradient id="linear-gradient-22" x1="818.9" y1="138.11" x2="818.9" y2="43.31" xlink:href="#linear-gradient"/><linearGradient id="linear-gradient-23" x1="925.98" y1="138.11" x2="925.98" y2="43.31" xlink:href="#linear-gradient"/><linearGradient id="linear-gradient-24" x1="200" y1="31.43" x2="12.63" y2="274.22" xlink:href="#linear-gradient"/><linearGradient id="linear-gradient-25" x1="223.31" y1="49.42" x2="35.94" y2="292.21" xlink:href="#linear-gradient"/><linearGradient id="linear-gradient-26" x1="265.07" y1="81.64" x2="77.7" y2="324.43" xlink:href="#linear-gradient"/><linearGradient id="linear-gradient-27" x1="206.47" y1="36.42" x2="19.1" y2="279.21" xlink:href="#linear-gradient"/><linearGradient id="linear-gradient-28" x1="145.08" y1="-10.96" x2="-42.29" y2="231.83" xlink:href="#linear-gradient"/><linearGradient id="linear-gradient-29" x1="139.07" y1="-15.6" x2="-48.31" y2="227.19" xlink:href="#linear-gradient"/><linearGradient id="linear-gradient-30" x1="200.68" y1="31.96" x2="13.31" y2="274.75" xlink:href="#linear-gradient"/><linearGradient id="linear-gradient-31" x1="253.42" y1="72.65" x2="66.04" y2="315.44" xlink:href="#linear-gradient"/><linearGradient id="linear-gradient-32" x1="255.88" y1="74.55" x2="68.51" y2="317.34" xlink:href="#linear-gradient"/><linearGradient id="linear-gradient-33" x1="231.3" y1="55.58" x2="43.93" y2="298.38" xlink:href="#linear-gradient"/><linearGradient id="linear-gradient-34" x1="161.31" y1="1.57" x2="-26.06" y2="244.36" xlink:href="#linear-gradient"/><linearGradient id="linear-gradient-35" x1="303.09" y1="110.98" x2="115.71" y2="353.77" xlink:href="#linear-gradient"/></defs><path class="cls-1" d="M295.06,296.14V250.8h32.05V259H303.47v12.39h22.36v7.91H303.47v16.8Z"/><path class="cls-2" d="M340.8,255.15c0,6.16-9.17,6.16-9.17,0S340.8,249,340.8,255.15ZM332.33,264v32.11h7.77V264Z"/><path class="cls-3" d="M354.31,264.16l.57,3.7c2.42-4,5.67-4.54,8.86-4.54a11.8,11.8,0,0,1,8.09,3.05l-3.5,6.87a7.71,7.71,0,0,0-5.61-2.07c-4.08,0-7.84,2.2-7.84,8.11v16.86h-7.77v-32Z"/><path class="cls-4" d="M395.27,272.66a10.48,10.48,0,0,0-7.77-2.85c-3.69,0-5.73,1.16-5.73,3.17s1.84,3.25,5.86,3.51c5.92.39,13.44,1.75,13.44,10.25,0,5.64-4.52,10.5-13.51,10.5-5,0-9.93-.84-14.52-5.7l3.82-5.65c2.23,2.53,7.33,4.41,10.83,4.48,2.93.06,5.67-1.49,5.67-3.83s-1.78-3.11-6.24-3.37c-5.93-.45-13-2.66-13-9.93s7.52-10,13.25-10c4.91,0,8.6,1,12.23,4.21Z"/><path class="cls-5" d="M417,255.15v9.08h8.66V271h-8.73v13.82c0,3,1.66,4.54,4.08,4.54a8.69,8.69,0,0,0,3.76-1l2.16,6.75a16.93,16.93,0,0,1-6.43,1.36c-6.82.26-11.28-3.7-11.28-11.67V271h-5.86v-6.81h5.86V256Z"/><path class="cls-6" d="M471.27,292.06a16,16,0,0,1-12.1,5.05c-9.11,0-16.69-5.57-16.69-16.92s7.58-16.93,16.69-16.93A14.77,14.77,0,0,1,470.51,268l-4.91,5.25a9.45,9.45,0,0,0-6.3-2.52c-5.23,0-9.05,3.89-9.05,9.47,0,6.09,4.08,9.34,8.92,9.34a9.38,9.38,0,0,0,6.88-2.66Z"/><path class="cls-7" d="M506.57,280.19c0,9.21-6.18,16.67-16.38,16.67s-16.31-7.46-16.31-16.67,6.25-16.67,16.25-16.67S506.57,271,506.57,280.19Zm-24.91,0c0,4.86,2.86,9.4,8.53,9.4s8.54-4.54,8.54-9.4-3.31-9.47-8.54-9.47C484.59,270.72,481.66,275.39,481.66,280.19Z"/><path class="cls-8" d="M532.81,296.14V279c0-4.22-2.16-8-6.43-8s-6.69,3.83-6.69,8v17.12h-7.77v-32h7.2l.57,3.89c1.65-3.24,5.29-4.41,8.28-4.41,3.76,0,7.52,1.56,9.3,6a11.33,11.33,0,0,1,10.51-5.84c8.92,0,13.32,5.58,13.32,15.18v17.25h-7.78V278.89c0-4.22-1.71-7.79-5.92-7.79s-6.82,3.7-6.82,7.92v17.12Z"/><path class="cls-9" d="M575.62,283c.51,4,3.89,6.82,9.37,6.82,2.86,0,6.62-1.11,8.41-3l5,5c-3.32,3.5-8.73,5.18-13.51,5.18-10.83,0-17.26-6.81-17.26-17.05,0-9.73,6.49-16.74,16.69-16.74,10.51,0,17.07,6.62,15.86,19.78Zm17.08-6.55c-.51-4.15-3.7-6.22-8.16-6.22-4.2,0-7.64,2.07-8.79,6.22Z"/><path class="cls-10" d="M612.51,302.5h-4.4l1.21-6.42a3.35,3.35,0,0,1-3-3.51c0-6,9-5.7,9,.2C615.38,293.55,615.44,293.35,612.51,302.5Z"/><path class="cls-11" d="M637.42,296.14V271.56h-5.86v-6.94h5.86v-2.14c0-8.57,5.67-12.52,12-12.52a15,15,0,0,1,8.16,2.59l-2.87,5.91a8.48,8.48,0,0,0-4.78-1.69c-2.67,0-4.71,1.82-4.71,5.71v2.14h9.24v6.94h-9.24v24.58Z"/><path class="cls-12" d="M668.38,255.15c0,6.16-9.17,6.16-9.17,0S668.38,249,668.38,255.15ZM659.91,264v32.11h7.77V264Z"/><path class="cls-13" d="M681.88,264.16l.58,3.7c2.42-4,5.67-4.54,8.85-4.54a11.8,11.8,0,0,1,8.09,3.05l-3.5,6.87a7.69,7.69,0,0,0-5.61-2.07c-4.07,0-7.83,2.2-7.83,8.11v16.86h-7.77v-32Z"/><path class="cls-14" d="M722.85,272.66a10.49,10.49,0,0,0-7.78-2.85c-3.69,0-5.73,1.16-5.73,3.17s1.85,3.25,5.86,3.51c5.93.39,13.44,1.75,13.44,10.25,0,5.64-4.52,10.5-13.5,10.5-5,0-9.94-.84-14.53-5.7l3.83-5.65c2.23,2.53,7.32,4.41,10.83,4.48,2.93.06,5.67-1.49,5.67-3.83s-1.79-3.11-6.25-3.37c-5.92-.45-13-2.66-13-9.93s7.51-10,13.25-10c4.9,0,8.6,1,12.23,4.21Z"/><path class="cls-15" d="M744.57,255.15v9.08h8.67V271h-8.73v13.82c0,3,1.65,4.54,4.07,4.54a8.62,8.62,0,0,0,3.76-1l2.17,6.75a17,17,0,0,1-6.44,1.36c-6.81.26-11.27-3.7-11.27-11.67V271h-5.86v-6.81h5.86V256Z"/><path class="cls-16" d="M792.41,272.66a10.47,10.47,0,0,0-7.77-2.85c-3.69,0-5.73,1.16-5.73,3.17s1.85,3.25,5.86,3.51c5.92.39,13.44,1.75,13.44,10.25,0,5.64-4.52,10.5-13.51,10.5-5,0-9.93-.84-14.52-5.7l3.82-5.65c2.23,2.53,7.33,4.41,10.83,4.48,2.93.06,5.67-1.49,5.67-3.83s-1.78-3.11-6.24-3.37c-5.93-.45-13-2.66-13-9.93s7.52-10,13.25-10c4.91,0,8.6,1,12.24,4.21Z"/><path class="cls-17" d="M809.8,283c.51,4,3.89,6.82,9.37,6.82,2.87,0,6.63-1.11,8.41-3l5,5c-3.31,3.5-8.73,5.18-13.51,5.18-10.83,0-17.26-6.81-17.26-17.05,0-9.73,6.5-16.74,16.69-16.74,10.51,0,17.07,6.62,15.86,19.78Zm17.08-6.55c-.51-4.15-3.7-6.22-8.16-6.22-4.2,0-7.64,2.07-8.79,6.22Z"/><path class="cls-18" d="M847.52,264.16l.57,3.7c2.42-4,5.67-4.54,8.86-4.54a11.8,11.8,0,0,1,8.09,3.05l-3.51,6.87a7.67,7.67,0,0,0-5.6-2.07c-4.08,0-7.84,2.2-7.84,8.11v16.86h-7.77v-32Z"/><path class="cls-19" d="M902.5,264.1l-13.38,32.17h-8.41L867.27,264.1h8.47l4.33,10.57,4.84,13.49,4.78-13.36L894,264.1Z"/><path class="cls-20" d="M912.88,283c.51,4,3.89,6.82,9.36,6.82,2.87,0,6.63-1.11,8.41-3l5,5c-3.31,3.5-8.72,5.18-13.5,5.18-10.83,0-17.27-6.81-17.27-17.05,0-9.73,6.5-16.74,16.69-16.74,10.52,0,17.08,6.62,15.87,19.78ZM930,276.42c-.51-4.15-3.69-6.22-8.15-6.22-4.21,0-7.65,2.07-8.79,6.22Z"/><path class="cls-21" d="M976,250.8v45.34h-7.26l-.51-4.41c-2.42,3.83-6.31,5.13-10.13,5.13-9.24,0-16.18-6.23-16.18-16.74,0-11,6.82-16.73,16-16.73,3.31,0,8.47,1.81,10.32,5.12V250.8ZM949.7,280.12c0,5.58,3.95,9.41,8.92,9.41a9.38,9.38,0,0,0,0-18.75C953.65,270.78,949.7,274.35,949.7,280.12Z"/><path class="cls-22" d="M439.27,78.53c-.36,32.68-20.4,65.36-64.82,65.36s-65-32-65-65.18,21.3-66.63,65-66.63C418,12.08,439.63,45.49,439.27,78.53Zm-106.35.54c.54,20.76,11.74,43,41.53,43s41-22.39,41.35-43.15c.36-21.31-11.56-45.14-41.35-45.14S332.38,57.76,332.92,79.07Z"/><path class="cls-22" d="M557.9,14.43h23.83V141h-14.8v.18l-66.45-85.4V141H476.65V14.61H496L557.9,93Z"/><path class="cls-22" d="M715.89,141H621.28V14.61h94.61V37.72h-71V66.79h68.43V89H644.93v28.53h71Z"/><path class="cls-23" d="M807.07,141V14.61h23.66V141Z"/><path class="cls-24" d="M982.4,76.72c.54,32-19,64.28-63.2,64.28H869.55V14.61H919.2C962.54,14.61,981.86,45.49,982.4,76.72Zm-89.2,41.35h26c28.71,0,40.09-20.94,39.55-41.53-.55-19.68-12.1-39.36-39.55-39.36h-26Z"/><path class="cls-22" d="M340.1,179.3c-1.92-3.2-7.2-6.24-13.28-6.24-7.84,0-11.6,3.28-11.6,7.44,0,4.88,5.76,6.24,12.48,7,11.68,1.44,22.56,4.48,22.56,17.84,0,12.48-11,17.84-23.52,17.84-11.44,0-20.24-3.52-24.4-13.76l8.8-4.56c2.48,6.16,9,8.88,15.76,8.88,6.64,0,12.88-2.32,12.88-8.4,0-5.28-5.52-7.44-13-8.24-11.44-1.36-22-4.4-22-17,0-11.52,11.36-16.24,21.68-16.32,8.72,0,17.76,2.48,22,11.12Z"/><path class="cls-22" d="M407.22,181.22,389,205.54H386.9l-17.84-24.4v40.72H358.5v-56h12.16l17.52,24.08,17.52-24.08h12.08v56H407.22Z"/><path class="cls-22" d="M467.46,211.22H438.18l-4.8,10.56H421.94l25.12-56h11.52l25.12,56H472.18Zm-14.64-33.68-10.4,23.84h20.8Z"/><path class="cls-22" d="M538.1,221.78H525.54l-16.32-18.72H499.06v18.72H488.5V165.7c8.88,0,17.76.08,26.64.08,13.2.08,20.16,8.88,20.16,18.56,0,7.68-3.52,15.44-14.16,17.6l17,19.12Zm-39-46.16v17.92h16.08c6.72,0,9.6-4.48,9.6-9s-3-9-9.6-9Z"/><path class="cls-22" d="M559.38,175.38H541.62v-9.6H587.7v9.6H569.94v46.4H559.38Z"/><path class="cls-22" d="M659.62,214.74c-5.76,5.68-13.2,8.32-21.28,8.32-20.8,0-29.6-14.32-29.68-28.88s9.44-29.52,29.68-29.52a28.89,28.89,0,0,1,20.56,8.56l-7,6.8a19.24,19.24,0,0,0-13.52-5.28c-13.52,0-19.36,10.08-19.28,19.44s5.44,19,19.28,19a20.62,20.62,0,0,0,14.08-5.68Z"/><path class="cls-22" d="M720.57,194.1c-.15,14.48-9,29-28.72,29s-28.8-14.16-28.8-28.88,9.44-29.52,28.8-29.52S720.73,179.46,720.57,194.1Zm-47.12.24c.24,9.2,5.2,19,18.4,19s18.16-9.92,18.32-19.12c.16-9.44-5.12-20-18.32-20S673.21,184.9,673.45,194.34Z"/><path class="cls-22" d="M765.13,165.7h10.56v56.08h-6.56v.08L739.69,184v37.76H729.13v-56h8.56l27.44,34.72Z"/><path class="cls-22" d="M799.85,175.38H782.09v-9.6h46.08v9.6H810.41v46.4H799.85Z"/><path class="cls-22" d="M884.25,221.78H871.69l-16.32-18.72H845.21v18.72H834.65V165.7c8.88,0,17.76.08,26.64.08,13.2.08,20.16,8.88,20.16,18.56,0,7.68-3.52,15.44-14.16,17.6l17,19.12Zm-39-46.16v17.92h16.08c6.72,0,9.6-4.48,9.6-9s-3-9-9.6-9Z"/><path class="cls-22" d="M928.33,211.22H899.05l-4.8,10.56H882.81l25.12-56h11.52l25.12,56H933.05Zm-14.64-33.68-10.4,23.84h20.8Z"/><path class="cls-22" d="M954.65,175.38H936.89v-9.6H983v9.6H965.21v46.4H954.65Z"/><polygon class="cls-25" points="96.3 221.78 83.39 221.78 83.39 171.84 71.33 171.84 71.33 196.81 58.42 196.81 58.42 158.92 96.3 158.92 96.3 221.78"/><polygon class="cls-26" points="121.27 246.75 58.42 246.75 58.42 208.86 71.33 208.86 71.33 233.83 108.36 233.83 108.36 133.27 121.27 133.27 121.27 246.75"/><polygon class="cls-27" points="96.3 296.69 83.39 296.69 83.39 258.8 133.33 258.8 133.33 183.89 171.21 183.89 171.21 271.72 158.3 271.72 158.3 196.81 146.24 196.81 146.24 271.72 96.3 271.72 96.3 296.69"/><polygon class="cls-28" points="196.18 146.87 158.3 146.87 158.3 96.93 133.33 96.93 133.33 34.07 196.18 34.07 196.18 46.99 146.24 46.99 146.24 84.01 171.21 84.01 171.21 133.95 196.18 133.95 196.18 146.87"/><polygon class="cls-29" points="96.3 96.93 58.42 96.93 58.42 34.07 108.36 34.07 108.36 9.52 171.21 9.52 171.21 22.43 121.27 22.43 121.27 46.99 71.33 46.99 71.33 84.01 96.3 84.01 96.3 96.93"/><polygon class="cls-30" points="71.33 121.9 33.45 121.9 33.45 71.53 46.36 71.53 46.36 108.98 71.33 108.98 71.33 121.9"/><polygon class="cls-31" points="71.33 296.69 58.42 296.69 58.42 271.72 33.45 271.72 33.45 221.78 8.48 221.78 8.48 183.89 46.36 183.89 46.36 196.81 21.39 196.81 21.39 208.86 46.36 208.86 46.36 258.8 71.33 258.8 71.33 296.69"/><polygon class="cls-32" points="271.09 146.87 233.21 146.87 233.21 96.93 208.24 96.93 208.24 34.07 221.15 34.07 221.15 84.01 246.12 84.01 246.12 133.95 271.09 133.95 271.09 146.87"/><polygon class="cls-33" points="271.09 196.81 233.21 196.81 233.21 171.84 208.24 171.84 208.24 121.9 183.27 121.9 183.27 71.96 158.3 71.96 158.3 59.04 196.18 59.04 196.18 108.98 221.15 108.98 221.15 158.92 246.12 158.92 246.12 183.89 258.17 183.89 258.17 158.92 271.09 158.92 271.09 196.81"/><polygon class="cls-34" points="246.12 246.75 183.27 246.75 183.27 171.37 133.33 171.37 133.33 121.9 96.3 121.9 96.3 146.87 46.36 146.87 46.36 171.37 8.48 171.37 8.48 133.95 21.39 133.95 21.39 158.45 33.45 158.45 33.45 133.95 83.39 133.95 83.39 108.98 146.24 108.98 146.24 158.45 196.18 158.45 196.18 233.83 233.21 233.83 233.21 221.78 208.24 221.78 208.24 183.89 221.15 183.89 221.15 208.86 246.12 208.86 246.12 246.75"/><polygon class="cls-35" points="121.27 96.93 108.36 96.93 108.36 71.96 83.39 71.96 83.39 59.04 121.27 59.04 121.27 96.93"/><polygon class="cls-36" points="171.21 321.66 108.36 321.66 108.36 283.77 208.24 283.77 208.24 271.72 183.27 271.72 183.27 258.8 221.15 258.8 221.15 296.69 121.27 296.69 121.27 308.74 171.21 308.74 171.21 321.66"/></svg>